<svg id="visual" viewBox="0 0 900 600" width="900" height="600" xmlns="http://www.w3.org/2000/svg" xmlns:xlink="http://www.w3.org/1999/xlink" version="1.1"><g stroke-width="1" stroke-linejoin="bevel"><path d="M517 285L501 361L572 384Z" fill="#c5c5c0" stroke="#c5c5c0"></path><path d="M572 384L607 277L517 285Z" fill="#bfbfba" stroke="#bfbfba"></path><path d="M607 277L610 220L517 285Z" fill="#acaca6" stroke="#acaca6"></path><path d="M501 361L525 461L572 384Z" fill="#acaca6" stroke="#acaca6"></path><path d="M610 220L493 201L517 285Z" fill="#dededb" stroke="#dededb"></path><path d="M381 282L403 389L501 361Z" fill="#acaca6" stroke="#acaca6"></path><path d="M381 282L501 361L517 285Z" fill="#c5c5c0" stroke="#c5c5c0"></path><path d="M501 361L403 389L525 461Z" fill="#e4e4e2" stroke="#e4e4e2"></path><path d="M607 277L685 225L610 220Z" fill="#dededb" stroke="#dededb"></path><path d="M715 387L706 278L607 277Z" fill="#b2b2ad" stroke="#b2b2ad"></path><path d="M715 387L607 277L572 384Z" fill="#acaca6" stroke="#acaca6"></path><path d="M493 201L425 221L517 285Z" fill="#b2b2ad" stroke="#b2b2ad"></path><path d="M706 278L685 225L607 277Z" fill="#b2b2ad" stroke="#b2b2ad"></path><path d="M583 88L494 117L493 201Z" fill="#c5c5c0" stroke="#c5c5c0"></path><path d="M567 507L715 387L572 384Z" fill="#cbcbc7" stroke="#cbcbc7"></path><path d="M425 221L381 282L517 285Z" fill="#cbcbc7" stroke="#cbcbc7"></path><path d="M495 600L567 507L525 461Z" fill="#b8b8b3" stroke="#b8b8b3"></path><path d="M525 461L567 507L572 384Z" fill="#dededb" stroke="#dededb"></path><path d="M338 394L388 481L403 389Z" fill="#c5c5c0" stroke="#c5c5c0"></path><path d="M403 389L388 481L525 461Z" fill="#a6a6a0" stroke="#a6a6a0"></path><path d="M381 282L338 394L403 389Z" fill="#c5c5c0" stroke="#c5c5c0"></path><path d="M493 201L439 139L425 221Z" fill="#b2b2ad" stroke="#b2b2ad"></path><path d="M299 197L320 290L381 282Z" fill="#a6a6a0" stroke="#a6a6a0"></path><path d="M583 88L493 201L610 220Z" fill="#a6a6a0" stroke="#a6a6a0"></path><path d="M494 117L439 139L493 201Z" fill="#bfbfba" stroke="#bfbfba"></path><path d="M299 197L381 282L425 221Z" fill="#d7d7d4" stroke="#d7d7d4"></path><path d="M381 282L320 290L338 394Z" fill="#b2b2ad" stroke="#b2b2ad"></path><path d="M671 69L583 88L610 220Z" fill="#e4e4e2" stroke="#e4e4e2"></path><path d="M567 507L731 512L715 387Z" fill="#dededb" stroke="#dededb"></path><path d="M715 387L818 260L706 278Z" fill="#e4e4e2" stroke="#e4e4e2"></path><path d="M221 403L332 471L338 394Z" fill="#d1d1cd" stroke="#d1d1cd"></path><path d="M338 394L332 471L388 481Z" fill="#a6a6a0" stroke="#a6a6a0"></path><path d="M392 600L495 600L388 481Z" fill="#cbcbc7" stroke="#cbcbc7"></path><path d="M388 481L495 600L525 461Z" fill="#dededb" stroke="#dededb"></path><path d="M567 507L611 600L731 512Z" fill="#dededb" stroke="#dededb"></path><path d="M495 600L611 600L567 507Z" fill="#cbcbc7" stroke="#cbcbc7"></path><path d="M829 415L818 260L715 387Z" fill="#bfbfba" stroke="#bfbfba"></path><path d="M706 278L818 260L685 225Z" fill="#b8b8b3" stroke="#b8b8b3"></path><path d="M685 225L671 69L610 220Z" fill="#e4e4e2" stroke="#e4e4e2"></path><path d="M439 139L299 197L425 221Z" fill="#b8b8b3" stroke="#b8b8b3"></path><path d="M320 290L221 403L338 394Z" fill="#b2b2ad" stroke="#b2b2ad"></path><path d="M778 63L671 69L685 225Z" fill="#d7d7d4" stroke="#d7d7d4"></path><path d="M731 512L829 415L715 387Z" fill="#d7d7d4" stroke="#d7d7d4"></path><path d="M900 330L829 227L818 260Z" fill="#e4e4e2" stroke="#e4e4e2"></path><path d="M818 260L829 227L685 225Z" fill="#cbcbc7" stroke="#cbcbc7"></path><path d="M338 600L392 600L388 481Z" fill="#e4e4e2" stroke="#e4e4e2"></path><path d="M731 512L812 519L829 415Z" fill="#d7d7d4" stroke="#d7d7d4"></path><path d="M611 600L711 600L731 512Z" fill="#e4e4e2" stroke="#e4e4e2"></path><path d="M784 600L812 519L731 512Z" fill="#b2b2ad" stroke="#b2b2ad"></path><path d="M639 0L523 0L583 88Z" fill="#bfbfba" stroke="#bfbfba"></path><path d="M583 88L523 0L494 117Z" fill="#b2b2ad" stroke="#b2b2ad"></path><path d="M494 117L403 0L439 139Z" fill="#a6a6a0" stroke="#a6a6a0"></path><path d="M439 139L263 131L299 197Z" fill="#e4e4e2" stroke="#e4e4e2"></path><path d="M179 335L221 403L320 290Z" fill="#d1d1cd" stroke="#d1d1cd"></path><path d="M332 471L338 600L388 481Z" fill="#dededb" stroke="#dededb"></path><path d="M210 600L338 600L332 471Z" fill="#d7d7d4" stroke="#d7d7d4"></path><path d="M706 0L639 0L671 69Z" fill="#c5c5c0" stroke="#c5c5c0"></path><path d="M671 69L639 0L583 88Z" fill="#c5c5c0" stroke="#c5c5c0"></path><path d="M403 0L263 131L439 139Z" fill="#d1d1cd" stroke="#d1d1cd"></path><path d="M299 197L179 335L320 290Z" fill="#e4e4e2" stroke="#e4e4e2"></path><path d="M900 374L900 330L829 415Z" fill="#bfbfba" stroke="#bfbfba"></path><path d="M829 415L900 330L818 260Z" fill="#c5c5c0" stroke="#c5c5c0"></path><path d="M900 160L778 63L829 227Z" fill="#bfbfba" stroke="#bfbfba"></path><path d="M829 227L778 63L685 225Z" fill="#e4e4e2" stroke="#e4e4e2"></path><path d="M900 495L900 374L829 415Z" fill="#c5c5c0" stroke="#c5c5c0"></path><path d="M221 403L220 461L332 471Z" fill="#dededb" stroke="#dededb"></path><path d="M711 600L784 600L731 512Z" fill="#dededb" stroke="#dededb"></path><path d="M812 519L900 495L829 415Z" fill="#cbcbc7" stroke="#cbcbc7"></path><path d="M523 0L403 0L494 117Z" fill="#b8b8b3" stroke="#b8b8b3"></path><path d="M778 63L706 0L671 69Z" fill="#d7d7d4" stroke="#d7d7d4"></path><path d="M132 261L179 335L299 197Z" fill="#b8b8b3" stroke="#b8b8b3"></path><path d="M221 403L130 466L220 461Z" fill="#c5c5c0" stroke="#c5c5c0"></path><path d="M900 600L900 495L812 519Z" fill="#acaca6" stroke="#acaca6"></path><path d="M900 330L900 160L829 227Z" fill="#c5c5c0" stroke="#c5c5c0"></path><path d="M778 63L831 0L706 0Z" fill="#a6a6a0" stroke="#a6a6a0"></path><path d="M182 61L179 160L263 131Z" fill="#b8b8b3" stroke="#b8b8b3"></path><path d="M263 131L179 160L299 197Z" fill="#b8b8b3" stroke="#b8b8b3"></path><path d="M403 0L291 0L263 131Z" fill="#a6a6a0" stroke="#a6a6a0"></path><path d="M179 160L132 261L299 197Z" fill="#c5c5c0" stroke="#c5c5c0"></path><path d="M130 466L210 600L220 461Z" fill="#dededb" stroke="#dededb"></path><path d="M130 466L221 403L100 419Z" fill="#d7d7d4" stroke="#d7d7d4"></path><path d="M220 461L210 600L332 471Z" fill="#bfbfba" stroke="#bfbfba"></path><path d="M900 70L831 0L778 63Z" fill="#d7d7d4" stroke="#d7d7d4"></path><path d="M900 160L900 70L778 63Z" fill="#dededb" stroke="#dededb"></path><path d="M100 419L221 403L179 335Z" fill="#d7d7d4" stroke="#d7d7d4"></path><path d="M784 600L900 600L812 519Z" fill="#d7d7d4" stroke="#d7d7d4"></path><path d="M179 160L104 181L132 261Z" fill="#d7d7d4" stroke="#d7d7d4"></path><path d="M291 0L182 61L263 131Z" fill="#c5c5c0" stroke="#c5c5c0"></path><path d="M132 261L100 419L179 335Z" fill="#dededb" stroke="#dededb"></path><path d="M130 466L74 600L210 600Z" fill="#d7d7d4" stroke="#d7d7d4"></path><path d="M126 103L104 181L179 160Z" fill="#acaca6" stroke="#acaca6"></path><path d="M132 261L0 265L100 419Z" fill="#b8b8b3" stroke="#b8b8b3"></path><path d="M182 61L126 103L179 160Z" fill="#dededb" stroke="#dededb"></path><path d="M900 70L900 0L831 0Z" fill="#bfbfba" stroke="#bfbfba"></path><path d="M291 0L190 0L182 61Z" fill="#dededb" stroke="#dededb"></path><path d="M182 61L117 0L126 103Z" fill="#acaca6" stroke="#acaca6"></path><path d="M190 0L117 0L182 61Z" fill="#acaca6" stroke="#acaca6"></path><path d="M0 191L0 265L104 181Z" fill="#d1d1cd" stroke="#d1d1cd"></path><path d="M0 474L130 466L100 419Z" fill="#a6a6a0" stroke="#a6a6a0"></path><path d="M0 474L74 600L130 466Z" fill="#e4e4e2" stroke="#e4e4e2"></path><path d="M0 191L104 181L0 80Z" fill="#b8b8b3" stroke="#b8b8b3"></path><path d="M104 181L0 265L132 261Z" fill="#b2b2ad" stroke="#b2b2ad"></path><path d="M0 265L0 435L100 419Z" fill="#e4e4e2" stroke="#e4e4e2"></path><path d="M0 80L104 181L126 103Z" fill="#bfbfba" stroke="#bfbfba"></path><path d="M0 435L0 474L100 419Z" fill="#b8b8b3" stroke="#b8b8b3"></path><path d="M117 0L0 80L126 103Z" fill="#d7d7d4" stroke="#d7d7d4"></path><path d="M0 474L0 600L74 600Z" fill="#cbcbc7" stroke="#cbcbc7"></path><path d="M117 0L0 0L0 80Z" fill="#d1d1cd" stroke="#d1d1cd"></path></g></svg>